<svg id="Rectangle_2_copy_2_Image" data-name="Rectangle 2 copy 2 Image" xmlns="http://www.w3.org/2000/svg" viewBox="0 0 461.76 51.84"><defs><style>.cls-1{fill:#fff;}</style></defs><title>grey1</title><path class="cls-1" d="M462,43.44v8.64H.24q0-25.38,0-50.76A5.21,5.21,0,0,1,.48.24C.45,5.83.43,11.43.39,17c0,.76.43.82,1,.82,1.84,0,3.68,0,5.52,0H9.6V.24H26.88V17.72H36V.24H462v43a8.26,8.26,0,0,1-.26-1.37c-.08-4.6-.09-9.19-.2-13.79-.1-4.12-2.14-6.41-6.2-7.09-.51-.09-1-.15-1.54-.19a13.48,13.48,0,0,0-7.25,1.14c-2.3,1.17-3.78,3.78-3.36,5.77a1,1,0,0,0,.23.08c1.2,0,2.4,0,3.59,0,1,0,1.93.11,2.09-1.27,0-.3.37-.61.64-.83a4.84,4.84,0,0,1,4.79-.06c1,.72,1.41,2.25.9,4a20.72,20.72,0,0,0-2.84,0A36.51,36.51,0,0,0,446,30.78c-3,1-4.42,3.67-4.14,6.81a6.42,6.42,0,0,0,5.38,6.06c3.09.59,6,.39,8.4-2.17.15.7.27,1.28.42,2ZM87.4,13.93c0,4.38,0,8.61,0,12.85,0,2.47,0,5,.24,7.42a9.75,9.75,0,0,0,7.84,9.15,19.08,19.08,0,0,0,8.57,0,9.29,9.29,0,0,0,7.5-7.09,21.73,21.73,0,0,0,.68-5.08c.09-5.36,0-10.72,0-16.08V13.94h-6.36v1.38c0,5.12,0,10.24,0,15.36a20.2,20.2,0,0,1-.31,3.81,5.15,5.15,0,0,1-5.24,4.39c-3,.16-5.25-1.19-6-3.86a15.52,15.52,0,0,1-.53-4.14c-.06-5.2,0-10.4,0-15.6V13.93ZM33.62,42.68c2.83,0,5.46,0,8.1,0,.74,0,1-.34,1.14-.92.88-2.65,1.81-5.28,2.65-7.94a1.18,1.18,0,0,1,1.35-1c4.48,0,9,0,13.43,0A1.34,1.34,0,0,1,61.79,34c1,2.91,2.05,5.79,3.08,8.68h9.5c-.14-.43-.25-.8-.37-1.17-1.7-4.77-3.43-9.54-5.06-14.33a1.61,1.61,0,0,0-1.84-1.33c-8.15,0-16.31,0-24.46,0-3.31,0-3.32,0-4.37,3.12C36.73,33.48,35.2,38,33.62,42.68Zm270.14.69c-.06-.24-.1-.43-.16-.62q-5-14-9.92-28.09a1.09,1.09,0,0,0-1.23-.82c-1.91,0-3.83.06-5.75,0a1.54,1.54,0,0,0-1.79,1.25c-2.2,6.66-4.48,13.3-6.73,20-.94,2.75-1.87,5.5-2.84,8.38,1.86,0,3.57,0,5.28,0a1.09,1.09,0,0,0,1.25-.94c.52-1.67,1.15-3.31,1.66-5a1.18,1.18,0,0,1,1.36-1c2.91,0,5.83.06,8.75,0a1.35,1.35,0,0,1,1.52,1.13c.63,1.93,1.34,3.83,2,5.74Zm56.42-1.53a19.18,19.18,0,0,0,2.9,1.63,8.9,8.9,0,0,0,9.5-2.53c3.61-4.12,4-12.29.84-16.75a8.14,8.14,0,0,0-12.76-.79,1.39,1.39,0,0,1-.37.24c-.11-.83-.21-1.57-.32-2.37h-5.73a9,9,0,0,0-.09,1q0,14,0,27.93a3.45,3.45,0,0,0,0,1.07c.09.26.41.62.63.63,1.74.05,3.49,0,5.32,0ZM.55,25.9a2.91,2.91,0,0,0-.09.59c.1,1.19.16,2.39.31,3.58C1.6,36.55,5.69,41.2,11.92,42.64a27.59,27.59,0,0,0,12.23.06,13.73,13.73,0,0,0,11-10.31,16.76,16.76,0,0,0,.76-6.45H27c-.1.89-.17,1.69-.27,2.47-.33,2.53-1.11,4.86-3.32,6.39a8.67,8.67,0,0,1-13.31-5.12c-.28-1.24-.42-2.5-.63-3.78ZM398.82,43.35c0-3.75,0-7.34,0-10.94a45.73,45.73,0,0,0-.23-5.5,6.43,6.43,0,0,0-4.19-5.67c-3-1.13-6.89-.54-8.91,2a3.15,3.15,0,0,1-.58.38V12.18H379V43.32H385c0-3.81,0-7.53,0-11.24a18.59,18.59,0,0,1,.28-3.34c.44-2.27,1.93-3.27,4.39-3.09,1.88.13,2.93,1.35,3.07,3.61,0,.59,0,1.2,0,1.79,0,3.68,0,7.36,0,11,0,.42.05.84.07,1.26ZM234,27.77c1.46,0,2.73,0,4,0,1,0,1.93.11,2.09-1.27,0-.3.37-.61.64-.83a4.84,4.84,0,0,1,4.79-.06c1,.72,1.41,2.26.9,4H243.9A17.57,17.57,0,0,0,237,30.72a6.47,6.47,0,0,0-4.12,6.88,6.43,6.43,0,0,0,5.39,6c3.09.59,6,.4,8.39-2.17.15.71.28,1.29.4,1.86h5.49c0-4,0-7.82,0-11.69,0-1.52,0-3-.08-4.56a5.7,5.7,0,0,0-3.31-5.19,13.63,13.63,0,0,0-11.61,0C235.2,23,234.11,25,234,27.77ZM343.2,29.59c-.95,0-1.87,0-2.79,0a17.19,17.19,0,0,0-6.8,1.16,6.51,6.51,0,0,0-4,6.94,6.43,6.43,0,0,0,5.36,6c3.09.59,6,.4,8.42-2.17l.4,1.87h5.49c0-3.06,0-6,0-9,0-2.36,0-4.72-.07-7.08a6,6,0,0,0-4.38-5.81,15.73,15.73,0,0,0-3.4-.66,13,13,0,0,0-7.13,1.11c-2.3,1.17-3.76,3.69-3.4,5.83h5.45c.72-2.89,2.83-2.92,4.88-2.52C342.94,25.54,343.57,26.94,343.2,29.59Zm-164.77,4H193c0-1.2.05-2.27,0-3.33-.3-5.42-3.46-8.89-8.83-9.45-5.16-.53-9.86,1.57-11.41,7.57a17.37,17.37,0,0,0-.52,5c.22,5.84,3.36,9.58,8.62,10.47,5.08.85,9.65-1.43,11.51-5.75.16-.38.27-.77.44-1.27-1.68,0-3.16,0-4.64,0a1.82,1.82,0,0,0-2,1,2.78,2.78,0,0,1-1.49,1.1C181.16,40.13,177.9,37.37,178.43,33.56ZM413.17,43.9c5.31,0,9.2-2.81,10.54-7.69a13.85,13.85,0,0,0,.47-2.71c.68-9.54-6.12-14.37-14.15-12.34-4.38,1.11-7.08,4.48-7.64,9.78C401.68,37.79,405.44,43.91,413.17,43.9ZM116.73,21.21V43.32h5.92c0-3.88,0-7.67,0-11.46a14.73,14.73,0,0,1,.33-3.32c.51-2.19,2-3.11,4.42-2.89,1.81.17,2.83,1.39,3,3.58,0,.6,0,1.2,0,1.8,0,3.68,0,7.35,0,11,0,.43,0,.86.06,1.27h6c0-5.18.14-10.29-.05-15.39-.12-3.12-1.41-5.83-4.72-6.81s-6.4-.41-8.74,2.46c0,0-.15,0-.28,0a8.86,8.86,0,0,0-.14-1.64c-.08-.29-.46-.7-.72-.71C120.15,21.18,118.48,21.21,116.73,21.21ZM326.55,43.37c0-5.23.14-10.34-.06-15.44-.11-3.12-1.41-5.84-4.72-6.8s-6.34-.48-8.65,2.4c-.05.06-.19.06-.36.11a11.24,11.24,0,0,0-.14-1.7c-.07-.27-.39-.68-.61-.69-1.74-.06-3.48,0-5.24,0v22.1h6c0-3.88,0-7.68,0-11.47a14.73,14.73,0,0,1,.33-3.32c.52-2.18,2-3.1,4.43-2.88,1.81.17,2.82,1.4,2.95,3.59,0,.6,0,1.2,0,1.8,0,3.68,0,7.35,0,11,0,.43,0,.85.06,1.3Zm-115.43-6.6a7.09,7.09,0,0,0,2.63,5,9.47,9.47,0,0,0,5.07,2,14.09,14.09,0,0,0,8.2-1.1,6.28,6.28,0,0,0,3.59-5.92,5.67,5.67,0,0,0-3.53-5.62,47.07,47.07,0,0,0-4.5-1.59c-1.21-.4-2.45-.72-3.65-1.14-.74-.27-1.3-.89-1-1.67a2.7,2.7,0,0,1,1.26-1.52c2-.86,4.05,0,5.19,2.11h5a3.4,3.4,0,0,0,.46-.07,5.86,5.86,0,0,0-3.75-5.5,13.11,13.11,0,0,0-10.49,0,5.86,5.86,0,0,0-3.72,5.66,5.31,5.31,0,0,0,3.51,5.45c1.83.77,3.77,1.28,5.66,1.93a13.83,13.83,0,0,1,2.44.94,2,2,0,0,1,0,3.39c-1.45.84-5.09.79-6.23-1.62a1.23,1.23,0,0,0-.81-.67C214.72,36.74,213,36.77,211.12,36.77ZM65.45,17.83a1.74,1.74,0,0,0,0-.46C63.53,12,61.61,6.55,59.72,1.12,59.48.43,59,.38,58.43.38c-3.08,0-6.16,0-9.23,0-1,0-1.37.37-1.67,1.26-1.62,4.92-3.32,9.82-5,14.73-.15.43-.25.89-.41,1.49,2.26,0,4.37-.06,6.47,0a1.65,1.65,0,0,0,2-1.43c.82-3.12,1.81-6.19,2.79-9.48.17.52.29.85.4,1.19.93,2.92,1.84,5.85,2.81,8.77.12.36.57.87.88.88C60.12,17.86,62.75,17.83,65.45,17.83Zm106.17,3.38c-2,0-3.68,0-5.4,0a1.36,1.36,0,0,0-.88.84c-1.42,4.74-2.79,9.49-4.17,14.25-.12.39-.21.79-.36,1.32-.16-.25-.22-.3-.23-.37-1.31-5-2.6-10-3.92-15.07-.1-.36-.42-.95-.66-1-2-.07-4,0-6,0a3.39,3.39,0,0,0,.06.64c2.35,7,4.7,13.92,7.1,20.86a1.37,1.37,0,0,0,1,.66c1.52.07,3,0,4.56,0,.86,0,1.15-.31,1.41-1,1.57-4.57,3.19-9.12,4.8-13.67Zm85.73-9.07V43.33h5.84V12.14Zm-47.7,14.3V20.71a7.7,7.7,0,0,0-7,4c-.13-.95-.07-1.82-.16-2.68,0-.28-.4-.76-.63-.77-1.74-.06-3.49,0-5.23,0V43.34h6c0-.66,0-1.25,0-1.84.07-3.39,0-6.8.26-10.18.23-3,2-4.51,5.06-4.74ZM433.91,43.35c0-1.73,0-3.33,0-4.93,0-2.35,0-4.72.23-7.06.31-3,2-4.54,5-4.78l1.83-.14V20.72a7.68,7.68,0,0,0-7,4c-.13-.92-.07-1.78-.17-2.63,0-.3-.45-.8-.71-.81-1.7-.07-3.42,0-5.17,0V43.35Zm-292.52,0h5.87V21.28h-5.87Zm0-25.92h5.9V12.16h-5.9Z" transform="translate(-0.24 -0.24)"/><path class="cls-1" d="M462,43.44h-5.9c-.15-.68-.27-1.26-.42-2-2.36,2.56-5.31,2.76-8.4,2.17a6.42,6.42,0,0,1-5.38-6.06c-.28-3.14,1.15-5.81,4.14-6.81a36.51,36.51,0,0,1,6.55-1.17,20.72,20.72,0,0,1,2.84,0c.51-1.72.14-3.25-.9-4a4.84,4.84,0,0,0-4.79.06c-.27.22-.61.53-.64.83-.16,1.38-1.09,1.3-2.09,1.27-1.19-.05-2.39,0-3.59,0a1,1,0,0,1-.23-.08c-.42-2,1.06-4.6,3.36-5.77a13.48,13.48,0,0,1,7.25-1.14c.51,0,1,.1,1.54.19,4.06.68,6.1,3,6.2,7.09.11,4.6.12,9.19.2,13.79A8.26,8.26,0,0,0,462,43.2Zm-6.2-10.31c-2.1.18-3.86.23-5.58.52a2.52,2.52,0,0,0-2.17,2.27,3,3,0,0,0,1.1,3.09c2,1.39,5.39.37,6.08-1.92A27.18,27.18,0,0,0,455.8,33.13Z" transform="translate(-0.24 -0.24)"/><path class="cls-1" d="M9.6.24v17.6H6.92c-1.84,0-3.68,0-5.52,0-.58,0-1-.06-1-.82C.43,11.43.45,5.83.48.24Z" transform="translate(-0.24 -0.24)"/><path class="cls-1" d="M36,.24V17.72H26.88V.24Z" transform="translate(-0.24 -0.24)"/><path class="cls-1" d="M87.4,13.93h6.37v1.35c0,5.2,0,10.4,0,15.6A15.52,15.52,0,0,0,94.32,35c.78,2.67,3,4,6,3.86a5.15,5.15,0,0,0,5.24-4.39,20.2,20.2,0,0,0,.31-3.81c0-5.12,0-10.24,0-15.36V13.94h6.36v1.18c0,5.36.06,10.72,0,16.08a21.73,21.73,0,0,1-.68,5.08,9.29,9.29,0,0,1-7.5,7.09,19.08,19.08,0,0,1-8.57,0,9.75,9.75,0,0,1-7.84-9.15c-.23-2.46-.22-5-.24-7.42C87.37,22.54,87.4,18.31,87.4,13.93Z" transform="translate(-0.24 -0.24)"/><path class="cls-1" d="M33.62,42.68C35.2,38,36.73,33.48,38.27,29c1-3.12,1.06-3.12,4.37-3.12,8.15,0,16.31,0,24.46,0a1.61,1.61,0,0,1,1.84,1.33c1.63,4.79,3.36,9.56,5.06,14.33.12.37.23.74.37,1.17h-9.5c-1-2.89-2.1-5.77-3.08-8.68a1.34,1.34,0,0,0-1.5-1.12c-4.48,0-8.95,0-13.43,0a1.18,1.18,0,0,0-1.35,1c-.84,2.66-1.77,5.29-2.65,7.94-.19.58-.4.94-1.14.92C39.08,42.65,36.45,42.68,33.62,42.68Z" transform="translate(-0.24 -0.24)"/><path class="cls-1" d="M303.76,43.37h-6.58c-.68-1.91-1.39-3.81-2-5.74a1.35,1.35,0,0,0-1.52-1.13c-2.92.07-5.84,0-8.75,0a1.18,1.18,0,0,0-1.36,1c-.51,1.68-1.14,3.32-1.66,5a1.09,1.09,0,0,1-1.25.94c-1.71-.06-3.42,0-5.28,0,1-2.88,1.9-5.63,2.84-8.38,2.25-6.65,4.53-13.29,6.73-20a1.54,1.54,0,0,1,1.79-1.25c1.92.07,3.84,0,5.75,0a1.09,1.09,0,0,1,1.23.82q4.94,14.06,9.92,28.09C303.66,42.94,303.7,43.13,303.76,43.37Zm-18.52-12h8.1c-1.4-4.28-2.75-8.45-4.19-12.85C287.81,22.89,286.54,27.05,285.24,31.32Z" transform="translate(-0.24 -0.24)"/><path class="cls-1" d="M360.18,41.84V51.9c-1.83,0-3.58,0-5.32,0-.22,0-.54-.37-.63-.63a3.45,3.45,0,0,1,0-1.07q0-14,0-27.93a9,9,0,0,1,.09-1H360c.11.8.21,1.54.32,2.37a1.39,1.39,0,0,0,.37-.24,8.14,8.14,0,0,1,12.76.79c3.18,4.46,2.77,12.63-.84,16.75a8.9,8.9,0,0,1-9.5,2.53A19.18,19.18,0,0,1,360.18,41.84Zm9.39-9.73a30.4,30.4,0,0,0-.91-3.91c-.72-1.93-2.2-2.7-4.39-2.59a3.81,3.81,0,0,0-3.83,3,13.57,13.57,0,0,0-.1,7.1,3.92,3.92,0,0,0,3.92,3.39,4.17,4.17,0,0,0,4.42-3A33.6,33.6,0,0,0,369.57,32.11Z" transform="translate(-0.24 -0.24)"/><path class="cls-1" d="M.55,25.9H9.42c.21,1.28.35,2.54.63,3.78A8.67,8.67,0,0,0,23.36,34.8c2.21-1.53,3-3.86,3.32-6.39.1-.78.17-1.58.27-2.47h9a16.76,16.76,0,0,1-.76,6.45,13.73,13.73,0,0,1-11,10.31,27.59,27.59,0,0,1-12.23-.06C5.69,41.2,1.6,36.55.77,30.07.62,28.88.56,27.68.46,26.49A2.91,2.91,0,0,1,.55,25.9Z" transform="translate(-0.24 -0.24)"/><path class="cls-1" d="M398.82,43.35h-6c0-.42-.07-.84-.07-1.26,0-3.68,0-7.36,0-11,0-.59,0-1.2,0-1.79-.14-2.26-1.19-3.48-3.07-3.61-2.46-.18-3.95.82-4.39,3.09a18.59,18.59,0,0,0-.28,3.34c0,3.71,0,7.43,0,11.24H379V12.18h5.9V23.61a3.15,3.15,0,0,0,.58-.38c2-2.53,5.93-3.12,8.91-2a6.43,6.43,0,0,1,4.19,5.67,45.73,45.73,0,0,1,.23,5.5C398.84,36,398.82,39.6,398.82,43.35Z" transform="translate(-0.24 -0.24)"/><path class="cls-1" d="M234,27.77c.14-2.74,1.23-4.78,3.55-5.85a13.63,13.63,0,0,1,11.61,0,5.7,5.7,0,0,1,3.31,5.19c.11,1.52.08,3,.08,4.56,0,3.87,0,7.74,0,11.69H247c-.12-.57-.25-1.15-.4-1.86-2.35,2.57-5.3,2.76-8.39,2.17a6.43,6.43,0,0,1-5.39-6A6.47,6.47,0,0,1,237,30.72a17.57,17.57,0,0,1,6.92-1.13h2.49c.51-1.71.14-3.25-.9-4a4.84,4.84,0,0,0-4.79.06c-.27.22-.61.53-.64.83-.16,1.38-1.09,1.3-2.09,1.27C236.7,27.74,235.43,27.77,234,27.77Zm12.7,5.3c-2.13.25-4,.33-5.81.72-1.34.3-1.87,1.32-1.89,2.72a2.72,2.72,0,0,0,1.66,2.79,4.11,4.11,0,0,0,5.77-2.89A28,28,0,0,0,246.67,33.07Z" transform="translate(-0.24 -0.24)"/><path class="cls-1" d="M343.2,29.59c.37-2.65-.26-4.05-2-4.4-2.05-.4-4.16-.37-4.88,2.52h-5.45c-.36-2.14,1.1-4.66,3.4-5.83a13,13,0,0,1,7.13-1.11,15.73,15.73,0,0,1,3.4.66,6,6,0,0,1,4.38,5.81c.1,2.36.07,4.72.07,7.08,0,3,0,6,0,9h-5.49l-.4-1.87c-2.38,2.57-5.33,2.76-8.42,2.17a6.43,6.43,0,0,1-5.36-6,6.51,6.51,0,0,1,4-6.94,17.19,17.19,0,0,1,6.8-1.16C341.33,29.58,342.25,29.59,343.2,29.59Zm.19,3.48c-2.12.25-4,.34-5.87.75-1.32.29-1.83,1.33-1.83,2.75a2.76,2.76,0,0,0,1.71,2.76,4.13,4.13,0,0,0,5.76-3.1C343.32,35.34,343.3,34.41,343.39,33.07Z" transform="translate(-0.24 -0.24)"/><path class="cls-1" d="M178.43,33.56c-.53,3.81,2.73,6.57,6.16,5.33a2.78,2.78,0,0,0,1.49-1.1,1.82,1.82,0,0,1,2-1c1.48.06,3,0,4.64,0-.17.5-.28.89-.44,1.27-1.86,4.32-6.43,6.6-11.51,5.75-5.26-.89-8.4-4.63-8.62-10.47a17.37,17.37,0,0,1,.52-5c1.55-6,6.25-8.1,11.41-7.57,5.37.56,8.53,4,8.83,9.45.06,1.06,0,2.13,0,3.33Zm.08-3.8h8.37c0-3-1.45-4.69-4-4.74S178.62,26.74,178.51,29.76Z" transform="translate(-0.24 -0.24)"/><path class="cls-1" d="M413.17,43.9c-7.73,0-11.49-6.11-10.78-13,.56-5.3,3.26-8.67,7.64-9.78,8-2,14.83,2.8,14.15,12.34a13.85,13.85,0,0,1-.47,2.71C422.37,41.09,418.48,43.91,413.17,43.9Zm-5-11.57a35.25,35.25,0,0,0,1.38,4.6,4.27,4.27,0,0,0,7.61-.22,10.91,10.91,0,0,0,0-8.85,3.93,3.93,0,0,0-3.94-2.41,3.81,3.81,0,0,0-3.85,2.36A38.32,38.32,0,0,0,408.19,32.33Z" transform="translate(-0.24 -0.24)"/><path class="cls-1" d="M116.73,21.21c1.75,0,3.42,0,5.09,0,.26,0,.64.42.72.71a8.86,8.86,0,0,1,.14,1.64c.13,0,.25,0,.28,0,2.34-2.87,5.37-3.47,8.74-2.46s4.6,3.69,4.72,6.81c.19,5.1.05,10.21.05,15.39h-6c0-.41-.06-.84-.06-1.27,0-3.68,0-7.35,0-11,0-.6,0-1.2,0-1.8-.13-2.19-1.15-3.41-3-3.58-2.4-.22-3.91.7-4.42,2.89a14.73,14.73,0,0,0-.33,3.32c0,3.79,0,7.58,0,11.46h-5.92Z" transform="translate(-0.24 -0.24)"/><path class="cls-1" d="M326.55,43.37h-6c0-.45-.06-.87-.06-1.3,0-3.68,0-7.35,0-11,0-.6,0-1.2,0-1.8-.13-2.19-1.14-3.42-2.95-3.59-2.4-.22-3.91.7-4.43,2.88a14.73,14.73,0,0,0-.33,3.32c0,3.79,0,7.59,0,11.47h-6V21.22c1.76,0,3.5,0,5.24,0,.22,0,.54.42.61.69a11.24,11.24,0,0,1,.14,1.7c.17-.05.31-.05.36-.11,2.31-2.88,5.34-3.37,8.65-2.4s4.61,3.68,4.72,6.8C326.69,33,326.55,38.14,326.55,43.37Z" transform="translate(-0.24 -0.24)"/><path class="cls-1" d="M211.12,36.77c1.85,0,3.6,0,5.35,0a1.23,1.23,0,0,1,.81.67c1.14,2.41,4.78,2.46,6.23,1.62a2,2,0,0,0,0-3.39,13.83,13.83,0,0,0-2.44-.94c-1.89-.65-3.83-1.16-5.66-1.93a5.31,5.31,0,0,1-3.51-5.45,5.86,5.86,0,0,1,3.72-5.66,13.11,13.11,0,0,1,10.49,0,5.86,5.86,0,0,1,3.75,5.5,3.4,3.4,0,0,1-.46.07h-5c-1.14-2.08-3.18-3-5.19-2.11a2.7,2.7,0,0,0-1.26,1.52c-.28.78.28,1.4,1,1.67,1.2.42,2.44.74,3.65,1.14a47.07,47.07,0,0,1,4.5,1.59,5.67,5.67,0,0,1,3.53,5.62A6.28,6.28,0,0,1,227,42.67a14.09,14.09,0,0,1-8.2,1.1,9.47,9.47,0,0,1-5.07-2A7.09,7.09,0,0,1,211.12,36.77Z" transform="translate(-0.24 -0.24)"/><path class="cls-1" d="M65.45,17.83c-2.7,0-5.33,0-8,0-.31,0-.76-.52-.88-.88-1-2.92-1.88-5.85-2.81-8.77-.11-.34-.23-.67-.4-1.19-1,3.29-2,6.36-2.79,9.48a1.65,1.65,0,0,1-2,1.43c-2.1-.08-4.21,0-6.47,0,.16-.6.26-1.06.41-1.49,1.66-4.91,3.36-9.81,5-14.73C47.83.73,48.2.34,49.2.36c3.07.07,6.15,0,9.23,0,.59,0,1,0,1.29.74C61.61,6.55,63.53,12,65.44,17.37A1.74,1.74,0,0,1,65.45,17.83Z" transform="translate(-0.24 -0.24)"/><path class="cls-1" d="M171.62,21.21,169,28.71c-1.61,4.55-3.23,9.1-4.8,13.67-.26.74-.55,1.1-1.41,1-1.52-.08-3,0-4.56,0a1.37,1.37,0,0,1-1-.66c-2.4-6.94-4.75-13.9-7.1-20.86a3.39,3.39,0,0,1-.06-.64c2,0,4,0,6,0,.24,0,.56.6.66,1,1.32,5,2.61,10,3.92,15.07,0,.07.07.12.23.37.15-.53.24-.93.36-1.32,1.38-4.76,2.75-9.51,4.17-14.25a1.36,1.36,0,0,1,.88-.84C167.94,21.17,169.66,21.21,171.62,21.21Z" transform="translate(-0.24 -0.24)"/><path class="cls-1" d="M257.35,12.14h5.84V43.33h-5.84Z" transform="translate(-0.24 -0.24)"/><path class="cls-1" d="M209.65,26.44l-1.78.14c-3,.23-4.83,1.73-5.06,4.74-.26,3.38-.19,6.79-.26,10.18,0,.59,0,1.18,0,1.84h-6V21.21c1.74,0,3.49,0,5.23,0,.23,0,.61.49.63.77.09.86,0,1.73.16,2.68a7.7,7.7,0,0,1,7-4Z" transform="translate(-0.24 -0.24)"/><path class="cls-1" d="M433.91,43.35h-6V21.21c1.75,0,3.47,0,5.17,0,.26,0,.68.51.71.81.1.85,0,1.71.17,2.63a7.68,7.68,0,0,1,7-4v5.72l-1.83.14c-3,.24-4.73,1.75-5,4.78-.23,2.34-.19,4.71-.23,7.06C433.89,40,433.91,41.62,433.91,43.35Z" transform="translate(-0.24 -0.24)"/><path class="cls-1" d="M141.39,43.35V21.28h5.87V43.35Z" transform="translate(-0.24 -0.24)"/><path class="cls-1" d="M141.38,17.43V12.16h5.9v5.27Z" transform="translate(-0.24 -0.24)"/><path class="cls-1" d="M455.8,33.13a27.18,27.18,0,0,1-.57,4c-.69,2.29-4.11,3.31-6.08,1.92a3,3,0,0,1-1.1-3.09,2.52,2.52,0,0,1,2.17-2.27C451.94,33.36,453.7,33.31,455.8,33.13Z" transform="translate(-0.24 -0.24)"/><path class="cls-1" d="M285.24,31.32c1.3-4.27,2.57-8.43,3.91-12.85,1.44,4.4,2.79,8.57,4.19,12.85Z" transform="translate(-0.24 -0.24)"/><path class="cls-1" d="M369.57,32.11a33.6,33.6,0,0,1-.89,4,4.17,4.17,0,0,1-4.42,3,3.92,3.92,0,0,1-3.92-3.39,13.57,13.57,0,0,1,.1-7.1,3.81,3.81,0,0,1,3.83-3c2.19-.11,3.67.66,4.39,2.59A30.4,30.4,0,0,1,369.57,32.11Z" transform="translate(-0.24 -0.24)"/><path class="cls-1" d="M246.67,33.07a28,28,0,0,1-.27,3.34,4.11,4.11,0,0,1-5.77,2.89A2.72,2.72,0,0,1,239,36.51c0-1.4.55-2.42,1.89-2.72C242.67,33.4,244.54,33.32,246.67,33.07Z" transform="translate(-0.24 -0.24)"/><path class="cls-1" d="M343.39,33.07c-.09,1.34-.07,2.27-.23,3.16a4.13,4.13,0,0,1-5.76,3.1,2.76,2.76,0,0,1-1.71-2.76c0-1.42.51-2.46,1.83-2.75C339.36,33.41,341.27,33.32,343.39,33.07Z" transform="translate(-0.24 -0.24)"/><path class="cls-1" d="M178.51,29.76c.11-3,1.78-4.79,4.38-4.74s4,1.77,4,4.74Z" transform="translate(-0.24 -0.24)"/><path class="cls-1" d="M408.19,32.33a38.32,38.32,0,0,1,1.22-4.52,3.81,3.81,0,0,1,3.85-2.36,3.93,3.93,0,0,1,3.94,2.41,10.91,10.91,0,0,1,0,8.85,4.27,4.27,0,0,1-7.61.22A35.25,35.25,0,0,1,408.19,32.33Z" transform="translate(-0.24 -0.24)"/></svg>